<?xml version="1.0" encoding="utf-8"?>
<!-- Generator: Adobe Illustrator 21.0.2, SVG Export Plug-In . SVG Version: 6.00 Build 0)  -->
<svg version="1.1" id="Layer_1" xmlns="http://www.w3.org/2000/svg" xmlns:xlink="http://www.w3.org/1999/xlink" x="0px" y="0px"
	 viewBox="0 0 637 198" style="enable-background:new 0 0 637 198;" xml:space="preserve">
<style type="text/css">
	.st0{fill:#FFFFFF;}
</style>
<g>
	<path class="st0" d="M32.9-0.4L-0.3,97v99.1H44V37.2h60.1V-0.4H32.9z"/>
	<path class="st0" d="M257.3-0.4v114.2c0,28.3-17.4,45.5-43.8,45.5c-26.4,0-44.9-17.1-44.9-45.5V-0.4h-44.4v114.2
		c0,51.9,34.8,84.2,89.3,84.2c54.2,0,88.1-32.3,88.1-84.2V-0.4H257.3z"/>
	<path class="st0" d="M470.4,131.2c23.9-11.2,36.8-33.1,36.8-63.4c0-43.5-29.2-68.2-80.6-68.2h-85.3v196.5h44.3v-56.1h45.2
		l31.2,56.1h50.2L470.4,131.2z M426.6,102.9h-41V36.3h41c24.4,0,38.5,10.9,38.5,32.8C465,91.6,451,102.9,426.6,102.9z"/>
	<path class="st0" d="M624.1,36.3l12.5-36.8h-92.2v196.5h25.2l19.1-56.1v-18.3h6.2l12.6-37h-18.9V36.3H624.1z"/>
</g>
</svg>
